# xmcd
#
# Track frame offsets: 
#        150
#        13472
#        24973
#        37811
#        51406
#        63829
#        77411
#        91060
#        103138
#        115596
#        127939
#        141489
#        152654
#        165837
#        178315
#        191446
#        202408
#        214795
#        228824
#        241853
#
# Disc length: 3396 seconds
#
# Revision: 0
# Processed by: cddbd v1.5.1PL0 Copyright (c) Steve Scherf et al.
# Submitted via: ExactAudioCopy v0.95a5
#
DISCID=030d4214
DTITLE=Blind Lemon Jefferson - Black Snake Moan
DYEAR=2004
DGENRE=Blues
TTITLE0=Hot Dogs
TTITLE1=Teddy Bear Blues
TTITLE2=Bad Luck Blues
TTITLE3=Broke and Hungry
TTITLE4=Prison Cell Blues
TTITLE5=Black Snake Moan
TTITLE6=Hangman's Blues
TTITLE7=That Crawling Baby Blues
TTITLE8=He Arose From The Dead
TTITLE9=Sunshine Special
TTITLE10=Matchbox Blues
TTITLE11=Rising High Water Blues
TTITLE12=Easy Rider Blues
TTITLE13=One Dime Blues
TTITLE14=Rabbit Foot Blues
TTITLE15=Lonesome House Blues
TTITLE16=Jack O'Diamond Blues
TTITLE17=Stocking Feet Blues
TTITLE18=Right Of My Way Blues
TTITLE19=See That My Grave Is Kept Clean
EXTD=
EXTT0=
EXTT1=
EXTT2=
EXTT3=
EXTT4=
EXTT5=
EXTT6=
EXTT7=
EXTT8=
EXTT9=
EXTT10=
EXTT11=
EXTT12=
EXTT13=
EXTT14=
EXTT15=
EXTT16=
EXTT17=
EXTT18=
EXTT19=
PLAYORDER=
